<svg height="512pt" viewBox="0 0 511 512" width="512pt" xmlns="http://www.w3.org/2000/svg"><path d="m295.4375 123.9375c-51.832031 0-94 42.167969-94 94s42.167969 94 94 94 94-42.167969 94-94-42.167969-94-94-94zm0 168c-40.804688 0-74-33.195312-74-74s33.195312-74 74-74 74 33.195312 74 74-33.195312 74-74 74zm0 0"/><path d="m501.902344 380.832031-86.691406-86.691406c14.066406-22.03125 22.226562-48.179687 22.226562-76.203125 0-29.773438-9.21875-57.429688-24.9375-80.28125v-127.65625c0-5.523438-4.476562-10-10-10h-356c-25.363281 0-46 20.636719-46 46v420c0 25.363281 20.636719 46 46 46h356c5.523438 0 10-4.476562 10-10v-108.226562l38.230469 38.230468c7.054687 7.054688 16.320312 10.582032 25.585937 10.582032s18.53125-3.527344 25.585938-10.582032c14.105468-14.109375 14.105468-37.066406 0-51.171875zm-76.164063-47.878906-22.886719 22.886719-23.457031-23.457032c8.730469-6.421874 16.703125-13.8125 23.753907-22.019531zm-130.300781 6.984375c-67.273438 0-122-54.726562-122-122 0-67.269531 54.726562-122 122-122 67.269531 0 122 54.730469 122 122 0 67.273438-54.726562 122-122 122zm-248.9375-319.9375h8v400h-8c-9.644531 0-18.597656 2.988281-26 8.078125v-382.078125c0-14.335938 11.664062-26 26-26zm178.746094 420h40.253906v24.929688l-13.070312-13.015626c-3.902344-3.886718-10.210938-3.886718-14.113282 0l-13.070312 13.015626zm20.125 33.113281 18.96875 18.886719h-37.9375zm147.128906 18.886719h-107.464844c.300782-.953125.464844-1.964844.464844-3v-49h107zm0-72h-215.5c-5.523438 0-10 4.476562-10 10s4.476562 10 10 10h28.246094v49c0 1.035156.160156 2.046875.460937 3h-159.207031c-14.339844 0-26-11.664062-26-26s11.660156-26 26-26h50.5c5.519531 0 10-4.476562 10-10s-4.480469-10-10-10h-22.5v-400h318v94.390625c-25.410156-23.832031-59.558594-38.453125-97.0625-38.453125-78.300781 0-142 63.703125-142 142 0 78.300781 63.699219 142 142 142 24.054688 0 46.726562-6.019531 66.605469-16.621094l30.453125 30.453125v46.230469zm95.257812-2.140625c-6.3125 6.308594-16.578124 6.3125-22.886718 0l-47.878906-47.878906 22.886718-22.886719 47.878906 47.878906c6.3125 6.308594 6.3125 16.578125 0 22.886719zm0 0"/><path d="m112.164062 73.667969h83.335938c5.519531 0 10-4.476563 10-10 0-5.523438-4.480469-10-10-10h-83.335938c-5.519531 0-10 4.476562-10 10 0 5.523437 4.480469 10 10 10zm0 0"/><path d="m163.832031 107.667969c0-5.523438-4.476562-10-10-10h-41.667969c-5.519531 0-10 4.476562-10 10 0 5.523437 4.480469 10 10 10h41.667969c5.523438 0 10-4.480469 10-10zm0 0"/><path d="m137 420c-2.632812 0-5.210938 1.070312-7.070312 2.929688-1.859376 1.859374-2.929688 4.441406-2.929688 7.070312s1.066406 5.210938 2.929688 7.070312c1.859374 1.859376 4.4375 2.929688 7.070312 2.929688 2.628906 0 5.210938-1.070312 7.066406-2.929688 1.863282-1.859374 2.933594-4.441406 2.933594-7.070312s-1.070312-5.210938-2.933594-7.070312c-1.855468-1.859376-4.4375-2.929688-7.066406-2.929688zm0 0"/></svg>