<svg id="Capa_1" enable-background="new 0 0 512 512" height="512" viewBox="0 0 512 512" width="512" xmlns="http://www.w3.org/2000/svg"><g><g><path d="m501.753 437.85c-6.513-5.339-14.985-7.454-23.238-5.801l-18.461 3.692c-2.781-5.196-8.26-8.741-14.553-8.741h-13.501v-3.5c0-9.098-7.402-16.5-16.5-16.5l-13.5.076v-66.076c0-2.346-1.098-4.558-2.967-5.976l-6.743-5.115 6.83-5.343c1.817-1.421 2.88-3.6 2.88-5.907v-43.127c0-4.143-3.357-7.5-7.5-7.5s-7.5 3.357-7.5 7.5v39.472l-11.62 9.089c-1.833 1.433-2.896 3.636-2.88 5.963.018 2.326 1.113 4.514 2.967 5.92l11.533 8.749v72.275h-262v-97.487l27.302-22.751c1.751-1.459 2.743-3.636 2.696-5.914-.046-2.279-1.126-4.413-2.935-5.8l-27.063-20.748v-68.3h15c4.143 0 7.5-3.357 7.5-7.5s-3.357-7.5-7.5-7.5h-15v-86h106.957c4.143 0 7.5-3.357 7.5-7.5s-3.357-7.5-7.5-7.5h-106.957v-55h262v55h-120.043c-4.143 0-7.5 3.357-7.5 7.5s3.357 7.5 7.5 7.5h120.043v15h-34c-4.143 0-7.5 3.357-7.5 7.5s3.357 7.5 7.5 7.5h34v18.597l-17.333 14.604c-1.737 1.465-2.718 3.639-2.665 5.91.053 2.272 1.134 4.398 2.938 5.78l17.06 13.062v57.579c0 4.143 3.357 7.5 7.5 7.5s7.5-3.357 7.5-7.5v-61.282c0-2.334-1.087-4.536-2.94-5.955l-12.588-9.638 12.861-10.837c1.69-1.425 2.667-3.523 2.667-5.735v-42.161s12.887.059 13.5.076c9.098 0 16.5-7.402 16.5-16.5v-3.5h13.5c6.294 0 11.772-3.545 14.553-8.741l18.46 3.692c1.841.368 3.691.549 5.529.549 6.406 0 12.649-2.201 17.71-6.35 6.514-5.338 10.248-13.229 10.248-21.65s-3.734-16.312-10.247-21.65-14.985-7.454-23.238-5.801l-18.461 3.692c-2.782-5.196-8.26-8.741-14.554-8.741h-13.5v-3.5c0-9.098-7.402-16.5-16.5-16.5h-12c-6.79 0-12.632 4.126-15.161 10h-264.678c-2.529-5.874-8.371-10-15.161-10h-12c-9.098 0-16.5 7.402-16.5 16.5v3.5h-13.5c-6.294 0-11.772 3.545-14.553 8.741l-18.46-3.692c-8.257-1.653-16.727.462-23.239 5.801s-10.248 13.229-10.248 21.65 3.734 16.312 10.247 21.65c5.061 4.148 11.304 6.35 17.71 6.35 1.838 0 3.688-.181 5.528-.549l18.461-3.692c2.782 5.196 8.26 8.741 14.554 8.741h13.5v3.5c0 9.098 7.402 16.5 16.5 16.5 2.873-.055 10.965.115 13.5-.076v163.076c0 2.333 1.086 4.532 2.937 5.952l22.555 17.292-22.793 18.994c-1.71 1.425-2.698 3.536-2.698 5.762v91.076l-13.501-.076c-9.098 0-16.5 7.402-16.5 16.5v3.5h-13.5c-6.294 0-11.772 3.545-14.553 8.741l-18.46-3.692c-8.257-1.652-16.727.462-23.239 5.801s-10.248 13.229-10.248 21.65 3.734 16.312 10.247 21.65c5.061 4.148 11.304 6.35 17.71 6.35 1.838 0 3.688-.181 5.528-.549l18.461-3.692c2.782 5.196 8.26 8.741 14.554 8.741h13.5v3.5c0 9.098 7.402 16.5 16.5 16.5h12c6.79 0 12.632-4.125 15.161-10h39.871c4.143 0 7.5-3.357 7.5-7.5s-3.357-7.5-7.5-7.5h-38.532v-55h262v55h-188.468c-4.143 0-7.5 3.357-7.5 7.5s3.357 7.5 7.5 7.5h189.807c2.529 5.875 8.371 10 15.161 10h12c9.098 0 16.5-7.402 16.5-16.5v-3.5h13.5c6.294 0 11.772-3.545 14.553-8.741l18.46 3.692c1.841.368 3.691.549 5.529.549 6.406 0 12.649-2.201 17.71-6.35 6.514-5.338 10.248-13.229 10.248-21.65s-3.734-16.312-10.247-21.65zm-20.296-398.092c3.832-.768 7.765.215 10.786 2.692 3.024 2.478 4.757 6.141 4.757 10.05s-1.733 7.572-4.757 10.05c-3.021 2.478-6.951 3.459-10.787 2.692l-19.456-3.891v-17.702zm-35.957-4.758c.827 0 1.5.673 1.5 1.5v32c0 .827-.673 1.5-1.5 1.5h-13.5v-35zm-43.5-18.5c0-.827.673-1.5 1.5-1.5h12c.827 0 1.5.673 1.5 1.5v72c0 .827-.673 1.5-1.5 1.5h-12c-.827 0-1.5-.673-1.5-1.5zm-371.457 48.742c-3.832.767-7.765-.215-10.786-2.692-3.024-2.478-4.757-6.141-4.757-10.05s1.733-7.572 4.757-10.05c3.021-2.478 6.952-3.46 10.787-2.692l19.456 3.891v17.703zm35.957 4.758c-.827 0-1.5-.673-1.5-1.5 0-2.504 0-29.539 0-32 0-.827.673-1.5 1.5-1.5h13.5v35zm42 20h-12c-.827 0-1.5-.673-1.5-1.5v-72c0-.827.673-1.5 1.5-1.5h12c.827 0 1.5.673 1.5 1.5v72c0 .827-.673 1.5-1.5 1.5zm-77.957 382.242c-3.832.768-7.765-.215-10.786-2.692-3.024-2.478-4.757-6.141-4.757-10.05s1.733-7.572 4.757-10.05c3.021-2.478 6.952-3.46 10.787-2.692l19.456 3.891v17.703zm35.957 4.758c-.827 0-1.5-.673-1.5-1.5v-32c0-.827.673-1.5 1.5-1.5h13.5v35zm43.5 18.5c0 .827-.673 1.5-1.5 1.5h-12c-.827 0-1.5-.673-1.5-1.5v-72c0-.827.673-1.5 1.5-1.5h12c.827 0 1.5.673 1.5 1.5zm307 0c0 .827-.673 1.5-1.5 1.5h-12c-.827 0-1.5-.673-1.5-1.5v-72c0-.827.673-1.5 1.5-1.5h12c.827 0 1.5.673 1.5 1.5zm28.5-18.5h-13.5v-35h13.5c.827 0 1.5.673 1.5 1.5v32c0 .827-.673 1.5-1.5 1.5zm46.743-7.45c-3.021 2.478-6.951 3.46-10.787 2.692l-19.456-3.891v-17.703l19.457-3.891c3.832-.768 7.765.215 10.786 2.692 3.023 2.478 4.757 6.141 4.757 10.05s-1.733 7.573-4.757 10.051z"/></g><g><path d="m323 125c4.143 0 7.5-3.357 7.5-7.5s-3.357-7.5-7.5-7.5h-24.5c-4.143 0-7.5 3.357-7.5 7.5s3.357 7.5 7.5 7.5z"/></g><g><path d="m198.5 147.5c0 4.143 3.357 7.5 7.5 7.5h100c4.143 0 7.5-3.357 7.5-7.5s-3.357-7.5-7.5-7.5h-100c-4.143 0-7.5 3.357-7.5 7.5z"/></g><g><path d="m341 170h-170c-4.143 0-7.5 3.357-7.5 7.5s3.357 7.5 7.5 7.5h170c4.143 0 7.5-3.357 7.5-7.5s-3.357-7.5-7.5-7.5z"/></g><g><path d="m341 200h-170c-4.143 0-7.5 3.357-7.5 7.5s3.357 7.5 7.5 7.5h170c4.143 0 7.5-3.357 7.5-7.5s-3.357-7.5-7.5-7.5z"/></g><g><path d="m348.5 364.5c0-4.143-3.357-7.5-7.5-7.5h-170c-4.143 0-7.5 3.357-7.5 7.5s3.357 7.5 7.5 7.5h170c4.143 0 7.5-3.357 7.5-7.5z"/></g><g><path d="m171 387c-4.143 0-7.5 3.357-7.5 7.5s3.357 7.5 7.5 7.5h99c4.143 0 7.5-3.357 7.5-7.5s-3.357-7.5-7.5-7.5z"/></g><g><path d="m213.005 262.31c-3.895-1.418-8.197.581-9.618 4.472-2.247 6.151-3.387 12.617-3.387 19.218 0 30.879 25.121 56 56 56s56-25.121 56-56-25.121-56-56-56c-9.214 0-18.353 2.288-26.428 6.617-3.65 1.957-5.023 6.503-3.066 10.154 1.957 3.649 6.501 5.023 10.154 3.066 5.903-3.164 12.591-4.837 19.34-4.837 22.607 0 41 18.393 41 41s-18.393 41-41 41-41-18.393-41-41c0-4.84.833-9.574 2.477-14.072 1.42-3.891-.581-8.197-4.472-9.618z"/></g></g></svg>