<svg id="Capa_1" enable-background="new 0 0 512.059 512.059" height="512" viewBox="0 0 512.059 512.059" width="512" xmlns="http://www.w3.org/2000/svg"><g><g><path d="m360.898 300.39c-.032-.019-.06-.041-.092-.06-.768-.443-41.784-16.189-41.784-16.189-4.59-1.76-9.786.074-12.247 4.335l-1.835 3.178c-6.713-3.738-11.3-10.426-12.414-17.972 13.344-7.01 24.466-17.68 32.038-30.671 3.953-.716 7.906-1.477 11.788-2.309 20.622-4.412 37.912-17.674 47.437-36.384 9.509-18.681 10.061-40.423 1.512-59.652-6.058-13.629-13.073-26.992-20.852-39.719-12.029-19.678-28.673-35.247-48.099-45.711l37.415-37.416c3.905-3.905 3.905-10.237 0-14.143-3.906-3.904-10.236-3.904-14.143 0l-30.759 30.759c-7.269-22.264-28.22-38.401-52.88-38.401s-45.611 16.136-52.88 38.4l-30.758-30.757c-3.906-3.904-10.236-3.904-14.143 0-3.905 3.905-3.905 10.237 0 14.143l37.454 37.454c-19.361 10.443-35.961 25.956-47.98 45.557-7.887 12.863-14.985 26.37-21.097 40.144-8.46 19.065-7.857 40.699 1.653 59.355 9.598 18.827 26.948 32.153 47.604 36.562 3.493.745 7.031 1.428 10.566 2.075 7.762 13.337 19.266 24.227 33.071 31.231-1.244 7.333-5.762 13.804-12.319 17.455l-1.835-3.179c-2.459-4.261-7.653-6.097-12.247-4.335 0 0-41.014 15.745-41.784 16.189-.033.02-.063.042-.096.062-23.527 10.243-43.546 26.729-58.147 47.98-15.75 22.926-24.075 49.746-24.075 77.561v76.103c0 5.522 4.478 10 10 10h132.204c5.522 0 10-4.478 10-10s-4.478-10-10-10h-28.03v-34.983h145.806v34.983h-27.776c-5.522 0-10 4.478-10 10s4.478 10 10 10h131.95c5.522 0 10-4.478 10-10v-76.103c0-27.814-8.325-54.635-24.075-77.561-14.601-21.251-34.622-37.737-58.151-47.981zm-41.075 5.485 21.471 8.25-70.973 122.927h-26.234zm-63.839-285.839c17.35 0 31.835 12.472 34.981 28.919-11.147-3.153-22.839-4.82-34.832-4.829-.033 0-.06 0-.092 0-12.066 0-23.831 1.678-35.043 4.861 3.132-16.462 17.624-28.951 34.986-28.951zm-109.933 175.21c-6.761-13.262-7.194-28.628-1.19-42.16 5.755-12.969 12.438-25.687 19.866-37.8 19.645-32.039 53.775-51.159 91.314-51.159h.077c37.547.026 71.665 19.186 91.266 51.251 7.326 11.987 13.935 24.574 19.641 37.412 6.089 13.696 5.702 29.171-1.06 42.455-6.595 12.956-18.445 22.225-32.625 25.615 1.331-5.773 2.058-11.776 2.058-17.948v-23.743c0-28.69-23.341-52.031-52.03-52.031-9.937 0-19.585 2.836-27.872 8.1-8.286-5.265-17.934-8.1-27.871-8.1-28.69 0-52.031 23.341-52.031 52.031v23.743c0 6.134.718 12.101 2.033 17.842-13.68-3.623-25.102-12.807-31.576-25.508zm49.542 7.666v-23.743c0-17.662 14.369-32.031 32.031-32.031 7.832 0 15.374 2.863 21.235 8.062 3.787 3.357 9.485 3.357 13.271 0 5.863-5.199 13.405-8.062 21.237-8.062 17.661 0 32.03 14.369 32.03 32.031v23.743c0 33.03-26.872 59.902-59.902 59.902s-59.902-26.871-59.902-59.902zm42.884 78.06c5.488 1.196 11.177 1.843 17.018 1.843 6.213 0 12.255-.736 18.064-2.084 2.919 11.841 10.616 22.145 21.381 28.243l-38.894 67.365-38.894-67.365c10.693-6.057 18.362-16.262 21.325-28.002zm6.023 115.366-13.117 22.72-60.583-104.932 21.47-8.251zm-155.53 29.596c0-23.754 7.109-46.657 20.56-66.236 11.01-16.025 25.627-28.878 42.727-37.69l66.422 115.045h-35.535v-.63c0-19.963-7.754-38.75-21.833-52.901-3.896-3.917-10.227-3.932-14.142-.036-3.915 3.895-3.932 10.227-.036 14.142 10.324 10.378 16.011 24.156 16.011 38.796v55.613h-74.174zm334.154 66.102h-74.174v-55.613c0-14.64 5.687-28.418 16.011-38.796 3.896-3.915 3.879-10.247-.036-14.142-3.915-3.896-10.246-3.879-14.142.036-14.079 14.151-21.833 33.568-21.833 53.531h-35.535l66.422-115.046c17.1 8.812 31.717 21.666 42.726 37.69 13.451 19.579 20.561 42.482 20.561 66.236z"/><path d="m74.255 63.446c2.596-14.031-.404-28.243-8.448-40.019-11.538-16.89-31.307-25.671-51.589-22.9-3.12.425-5.856 2.295-7.388 5.046-9.954 17.889-8.969 39.496 2.57 56.387 8.044 11.775 20.191 19.738 34.207 22.423.633.121 1.264.18 1.888.18 4.292 0 8.205-2.774 9.534-7.005l2.013-6.41 6.702.456c5.066.346 9.587-3.164 10.511-8.158zm-23.509-12.772c-4.509-.408-8.88 2.32-10.375 6.805-.018.056-1.408 4.48-1.408 4.48-5.212-2.525-9.698-6.376-13.049-11.28-6.246-9.145-7.562-20.493-3.79-30.646 10.828.181 20.923 5.532 27.168 14.676 3.351 4.904 5.306 10.484 5.763 16.258z"/><path d="m511.556 215.128c-.425-3.12-2.295-5.857-5.046-7.388-17.89-9.953-39.496-8.968-56.387 2.57-11.775 8.043-19.738 20.191-22.423 34.205-.956 4.988 1.979 9.901 6.825 11.423l6.41 2.013-.456 6.703c-.345 5.067 3.163 9.588 8.157 10.512 3.293.609 6.594.91 9.873.91 10.692 0 21.134-3.202 30.146-9.358 16.891-11.538 25.667-31.307 22.901-51.59zm-34.182 35.075c-4.904 3.351-10.484 5.306-16.258 5.763l.293-4.312c.401-4.511-2.321-8.877-6.805-10.372-.056-.018-4.48-1.408-4.48-1.408 2.525-5.211 6.376-9.697 11.28-13.048 9.144-6.246 20.492-7.562 30.646-3.791-.18 10.829-5.532 20.922-14.676 27.168z"/><path d="m268.899 227.892c3.905-3.904 3.906-10.236.002-14.143-3.463-3.463-8.832-3.857-12.727-1.18-3.896-2.677-9.264-2.283-12.727 1.18-3.904 3.906-3.903 10.238.002 14.143 3.509 3.507 8.116 5.261 12.725 5.261s9.216-1.754 12.725-5.261z"/><circle cx="255.497" cy="502.036" r="10"/></g></g></svg>