<svg id="Capa_1" enable-background="new 0 0 512 512" height="512" viewBox="0 0 512 512" width="512" xmlns="http://www.w3.org/2000/svg"><g><g><path d="m472 92c-22.056 0-40 17.944-40 40 0 11.445 4.883 22.132 13.146 29.623l-16.524 34.476c-7.541-2.695-15.553-4.099-23.622-4.099-38.598 0-70 31.402-70 70 0 6.528.894 12.906 2.638 19.068l-13.369 5.228c-5.144 2.011-7.683 7.812-5.671 12.955 2.017 5.159 7.825 7.677 12.955 5.671l14.246-5.571c12.71 20.091 35.036 32.649 59.201 32.649 1.964 0 3.903-.102 5.826-.261l5.722 24.789c-12.791 6.681-21.548 20.069-21.548 35.472 0 22.056 17.944 40 40 40s40-17.944 40-40c0-21.709-17.387-39.421-38.965-39.974l-5.721-24.783c26.119-10.169 44.686-35.571 44.686-65.243 0-22.547-10.793-43.446-28.694-56.526l16.559-34.548c2.989.7 6.055 1.074 9.135 1.074 22.056 0 40-17.944 40-40s-17.944-40-40-40zm-17 300c0 11.028-8.972 20-20 20s-20-8.972-20-20 8.972-20 20-20 20 8.972 20 20zm-50-80c-27.354 0-50-22.151-50-50 0-27.57 22.43-50 50-50 8.287 0 16.481 2.061 23.697 5.958.001 0 .002.001.004.002 16.222 8.754 26.299 25.629 26.299 44.04 0 27.57-22.43 50-50 50zm67-160c-11.132 0-20-9.026-20-20 0-11.028 8.972-20 20-20s20 8.972 20 20-8.972 20-20 20z"/><path d="m337 80c0-22.056-17.944-40-40-40s-40 17.944-40 40c0 3.223.4 6.435 1.167 9.557l-34.902 18.792c-13.096-17.692-33.865-28.349-56.265-28.349-17.173 0-33.537 6.281-46.235 17.469l-44.845-39.891c2.609-5.309 4.08-11.274 4.08-17.578 0-22.056-17.944-40-40-40s-40 17.944-40 40 17.944 40 40 40c8.514 0 16.409-2.682 22.902-7.234l44.882 39.924c-6.998 11.111-10.784 24.051-10.784 37.31 0 8.301 1.49 16.54 4.337 24.267l-32.146 18.396c-7.463-7.971-17.965-12.663-29.191-12.663-22.056 0-40 17.944-40 40s17.944 40 40 40 40-17.944 40-40c0-3.301-.413-6.591-1.216-9.784l32.1-18.37c11.12 14.914 27.708 24.786 46.116 27.433v73.446c-30.609 4.399-54.875 28.666-59.274 59.274h-39.446c-4.128-11.639-15.243-20-28.28-20-16.542 0-30 13.458-30 30s13.458 30 30 30c13.036 0 24.152-8.361 28.28-20h39.452c1.403 9.705 4.829 19.018 10.051 27.31l-44.882 39.924c-6.492-4.551-14.387-7.233-22.901-7.233-22.056 0-40 17.944-40 40s17.944 40 40 40 40-17.944 40-40c0-6.304-1.471-12.269-4.08-17.578l44.845-39.891c12.698 11.188 29.062 17.469 46.235 17.469 15.314 0 29.878-4.894 41.923-13.935l33.614 33.614c-3.608 6.093-5.537 13.059-5.537 20.321 0 22.056 17.944 40 40 40s40-17.944 40-40-17.944-40-40-40c-7.262 0-14.228 1.929-20.321 5.537l-33.613-33.613c9.038-12.042 13.934-26.608 13.934-41.924 0-6.528-.894-12.906-2.638-19.068l13.369-5.228c5.144-2.011 7.683-7.812 5.671-12.955-2.011-5.144-7.811-7.682-12.955-5.671l-14.246 5.571c-10.935-17.284-28.984-28.992-49.202-31.925v-73.449c33.877-4.868 60-34.072 60-69.274 0-8.22-1.46-16.379-4.254-24.042l34.907-18.795c7.473 8.074 18.042 12.836 29.348 12.836 22.056 0 40-17.944 40-40zm-317-40c0-11.028 8.972-20 20-20s20 8.972 20 20-8.972 20-20 20-20-8.972-20-20zm20 200c-11.028 0-20-8.972-20-20s8.972-20 20-20c10.981 0 20 8.872 20 20 0 11.028-8.972 20-20 20zm-10 132c-5.514 0-10-4.486-10-10s4.486-10 10-10 10 4.486 10 10-4.486 10-10 10zm10 120c-11.028 0-20-8.972-20-20s8.972-20 20-20 20 8.972 20 20-8.972 20-20 20zm257-20c0 11.028-8.972 20-20 20s-20-8.972-20-20c0-5.338 2.082-10.359 5.861-14.139s8.801-5.861 14.139-5.861c11.028 0 20 8.972 20 20zm-80-110c0 27.621-22.373 50-50 50-27.703 0-50-22.482-50-50 0-27.57 22.43-50 50-50 27.345 0 50 22.142 50 50zm-50-162c-27.484 0-50-22.255-50-50 0-27.481 22.263-50 50-50 27.345 0 50 22.147 50 50 0 27.57-22.43 50-50 50zm110-120c0-11.028 8.972-20 20-20s20 8.972 20 20-8.972 20-20 20c-10.981 0-20-8.872-20-20z"/><path d="m167 120c-16.542 0-30 13.458-30 30 0 5.523 4.477 10 10 10s10-4.477 10-10c0-5.514 4.486-10 10-10 5.523 0 10-4.477 10-10s-4.477-10-10-10z"/><path d="m137 362c0 5.523 4.477 10 10 10s10-4.477 10-10c0-5.514 4.486-10 10-10 5.523 0 10-4.477 10-10s-4.477-10-10-10c-16.542 0-30 13.458-30 30z"/><circle cx="286" cy="312" r="10"/></g><path d="m405 232c-16.542 0-30 13.458-30 30 0 5.523 4.477 10 10 10s10-4.477 10-10c0-5.514 4.486-10 10-10 5.523 0 10-4.477 10-10s-4.477-10-10-10z"/></g></svg>