<?xml version="1.0" encoding="iso-8859-1"?>
<!-- Generator: Adobe Illustrator 19.0.0, SVG Export Plug-In . SVG Version: 6.00 Build 0)  -->
<svg version="1.1" id="Capa_1" xmlns="http://www.w3.org/2000/svg" xmlns:xlink="http://www.w3.org/1999/xlink" x="0px" y="0px"
	 viewBox="0 0 511.536 511.536" style="enable-background:new 0 0 511.536 511.536;" xml:space="preserve">
<g>
	<g>
		<g>
			<rect x="367.536" y="124.624" width="64" height="32"/>
			<rect x="207.536" y="124.624" width="64" height="32"/>
			<path d="M319.536,332.624c44.161-0.053,79.947-35.839,80-80v-16h-160v16C239.589,296.785,275.375,332.571,319.536,332.624z
				 M364.8,268.624c-8.822,24.999-36.239,38.112-61.238,29.29c-13.69-4.831-24.458-15.6-29.29-29.29H364.8z"/>
			<path d="M461.792,269.376l29.424,12.528c4.454-10.483,8.195-21.254,11.2-32.24l-30.88-8.464
				C468.915,250.797,465.66,260.21,461.792,269.376z"/>
			<path d="M477.552,211.952l31.712,4.288c1.511-11.276,2.27-22.639,2.272-34.016h-32
				C479.535,192.166,478.872,202.098,477.552,211.952z"/>
			<path d="M445.936,30.48c-82.71-22.464-169.914-22.464-252.624,0L127.536,48.4v75.056c-25.088,11.803-49.108,25.754-71.792,41.696
				L0,204.528l45.792,125.728c36.854,100.591,132.535,167.52,239.664,167.648c6.912,0,13.845-0.283,20.8-0.848l4.352-0.352
				l3.568-2.528c36.111-25.535,64.973-60.009,83.76-100.048c31.781-21.068,58.408-49.024,77.904-81.792L448.336,296
				c-28.675,48.481-74.725,84.234-128.8,100c-94.745-28.027-159.819-114.972-160-213.776V72.848l42.112-11.488
				c77.195-20.96,158.582-20.96,235.776,0l42.112,11.488v84.112h32V48.4L445.936,30.48z M315.328,428.064l4.208,1.136l4.208-1.136
				c6.8-1.856,13.44-4.128,20-6.496c-12.692,16.625-27.654,31.388-44.448,43.856c-98.538,5.849-189.29-53.496-223.44-146.112
				L38.448,216.56l35.728-25.248c17.022-11.974,34.851-22.757,53.36-32.272v23.184C127.741,297.072,204.577,397.659,315.328,428.064
				z"/>
		</g>
	</g>
</g>
<g>
</g>
<g>
</g>
<g>
</g>
<g>
</g>
<g>
</g>
<g>
</g>
<g>
</g>
<g>
</g>
<g>
</g>
<g>
</g>
<g>
</g>
<g>
</g>
<g>
</g>
<g>
</g>
<g>
</g>
</svg>
