<svg height="512pt" viewBox="0 0 512 512.00458" width="512pt" xmlns="http://www.w3.org/2000/svg"><path d="m497.207031 2.738281-91.046875 98.632813-5.25-26.253906c-.625-3.136719-2.953125-5.65625-6.027344-6.53125-3.074218-.878907-6.378906.035156-8.5625 2.367187l-79.730468 84.988281-39.3125 8.226563c-8.929688 2.160156-17.53125 5.507812-25.570313 9.953125-.640625.453125-1.242187.960937-1.792969 1.519531-5.679687-3.851563-11.988281-6.683594-18.640624-8.363281-16.507813-3.679688-28.589844 10.003906-33.542969 19.273437-3.3125-.09375-6.621094.265625-9.832031 1.0625-9.363282 1.859375-16.734376 9.09375-18.769532 18.417969-.570312 2.648438-.773437 5.363281-.597656 8.066406-.359375.019532-.757812-.042968-1.113281 0-7.359375.355469-14.046875 4.390625-17.792969 10.738282-4.199219 9.789062-4.351562 20.84375-.425781 30.746093-4.726563 2.308594-8.585938 6.078125-11.007813 10.75-2.738281 5.570313-3.644531 11.859375-2.597656 17.972657-1.378906-1.492188-3.246094-2.4375-5.261719-2.667969-3.472656-.335938-6.804687 1.464843-8.429687 4.554687l-110.933594 213.332032c-1.976562 3.796874-.839844 8.46875 2.660156 10.929687s8.285156 1.945313 11.183594-1.199219l91.046875-98.636718 5.25 26.253906c.628906 3.136718 2.957031 5.65625 6.027344 6.53125 3.074219.875 6.378906-.039063 8.566406-2.371094l59.925781-63.980469c13.207032 9.480469 27.28125 17.699219 42.027344 24.546875 8.167969 3.746094 16.03125 8.117188 23.523438 13.074219.921874 1.457031 2.296874 3.328125 3.914062 5.460937-2.121094 8.464844-1.058594 17.414063 2.984375 25.144532l27.476563 52.910156c4.386718 8.496094 13.160156 13.828125 22.722656 13.808594h140.5c2.15625.011718 4.230468-.824219 5.773437-2.324219.074219-.070313.179688-.097656.257813-.171875l.003906-.007812.003906-.003907 1.617188-1.609375.007812-.007812c12.953125-12.894532 14.007813-33.519532 2.433594-47.667969l-71.925781-88.574219c-.078125-.316406-.171875-.625-.285157-.929687-.695312-1.226563-1.695312-2.257813-2.902343-2.992188l-9.515625-11.710937c-4.171875-5.160156-10.4375-8.1875-17.074219-8.246094l4.085937-43.03125c.023438-.152344.167969-1.148438.183594-1.308594l5.417969-55.777344c1.683594-8.375-.390625-17.070312-5.679687-23.78125l-11.140626-22.1875 19.851563-21.132812 5.703125 34.199219c.589844 3.546875 3.339844 6.339843 6.875 6.988281s7.097656-.988281 8.910156-4.089844l119.464844-204.800781c2.191406-3.761719 1.199219-8.566406-2.296875-11.15625-3.5-2.585937-8.386719-2.128906-11.339844 1.066406zm-279.640625 181.199219c6.25 1.804688 12.085938 4.8125 17.183594 8.851562.332031 3.550782 1.15625 7.035157 2.449219 10.355469 3.964843 12.367188 15.839843 20.449219 28.800781 19.59375l6.835938 7.148438c.59375.621093 1.28125 1.152343 2.03125 1.570312.1875 1.871094.027343 3.761719-.46875 5.574219-1.011719 4.523438-12.824219 2.476562-12.902344 2.460938-.933594-.179688-1.890625-.199219-2.832032-.058594-5.632812-5.109375-13.730468-12.753906-23.339843-22.777344-8.707031-10.015625-18.941407-18.597656-30.324219-25.417969 2.738281-3.65625 7.394531-8.414062 12.566406-7.300781zm-31.523437 115.207031c-.421875-.34375-.882813-.640625-1.363281-.890625-.4375-.351562-.910157-.65625-1.40625-.917968-.539063-.167969-1.09375-.28125-1.65625-.339844-.503907-.144532-1.023438-.238282-1.542969-.285156-.578125.046874-1.152344.152343-1.707031.3125-.507813.058593-1.007813.160156-1.496094.304687-.527344.269531-1.019532.59375-1.480469.960937-.457031.238282-.894531.523438-1.300781.84375l-13.203125 12.9375c-7.042969-11.09375-13.355469-21-16.609375-26.097656l-1.285156-2.027344c-1.355469-3.164062-1.214844-6.769531.382812-9.820312 1.429688-2.824219 4.371094-4.558594 7.53125-4.449219 1.585938-.078125 3.171875.074219 4.714844.453125 17.105468 4.21875 32.828125 12.789063 45.644531 24.875 3.289063 2.710938 6.351563 5.480469 8.945313 8.066406.894531.851563 1.324218 2.082032 1.15625 3.304688-.171876.816406-.636719 1.539062-1.304688 2.03125-3.699219 1.261719-7.613281 1.769531-11.507812 1.492188-1.027344-.121094-1.992188-.535157-2.785157-1.195313zm102.382812-78.320312c4.425781-.140625 8.78125 1.144531 12.425781 3.660156.863282.738281 1.519532 1.679687 1.914063 2.742187l-11.515625 12.289063c1.871094-6.34375.835938-13.1875-2.824219-18.691406zm-106.390625-16.652344c10.902344-2.714844 20.496094 2.9375 40.96875 24.296875 10.5 11.140625 21.621094 21.675781 33.304688 31.558594.535156.386718 1.113281.710937 1.71875.960937.707031 1.03125 1.628906 1.894531 2.707031 2.523438.179687 1.859375.019531 3.738281-.472656 5.542969-.75 3.375-7.527344 3.085937-10.960938 2.714843-13.449219-12.324219-48.324219-42.976562-73.410156-53.765625.171875-1.113281.121094-2.246094-.152344-3.335937-.789062-2.230469-.542969-4.699219.675781-6.730469s3.28125-3.410156 5.621094-3.765625zm-27.609375 29.152344c.324219-.5625 1.082031-1.878907 4.75-2.253907 1.554688-.074218 3.105469.132813 4.585938.605469 17.847656 4.804688 52.066406 32.335938 75.945312 54.464844l1.707031 1.59375c.101563 1.734375-.074218 3.472656-.511718 5.152344-.113282.339843-.300782.648437-.542969.910156l-.652344.695313c-3.203125 2.304687-11.644531.871093-11.738281.847656-.808594-.132813-1.628906-.144532-2.441406-.039063-.867188-1.488281-1.902344-2.871093-3.082032-4.125-3.148437-3.148437-6.628906-6.289062-10.371093-9.375-14.914063-13.796875-33.105469-23.554687-52.847657-28.347656-1.058593-.226563-1.933593-.300781-2.890624-.4375-2.835938-6.164063-3.507813-13.101563-1.910157-19.691406zm-5.84375 91.203125-7.972656 8.507812-10.90625-38.183594.1875.296876c3.566406 5.597656 10.824219 16.984374 18.691406 29.378906zm-23.992187 92.726562-5.28125-26.402344c-.628906-3.144531-2.96875-5.671874-6.058594-6.539062-3.085938-.867188-6.402344.070312-8.578125 2.425781l-59.121094 64.050781 71.609375-137.707031 11.179688 39.125c.84375 2.957031 3.210937 5.226563 6.199218 5.949219 2.988282.722656 6.132813-.21875 8.234376-2.460938l22.527343-24.058593 14.761719-14.453125 3.957031 3.886718c3.542969 3.234376 8.015625 5.265626 12.78125 5.800782 4.488281.320312 9.003907.015625 13.410157-.902344l-30.578126 32.621094c-.269531.222656-.523437.460937-.765624.714844zm320.605468 77.671875h-136.917968c-3.1875.007813-6.113282-1.769531-7.570313-4.605469l-20.234375-38.964843c16.542969-19.191407 69.445313-50.683594 96.074219-65.449219l69.089844 85.074219c5.738281 7.015625 5.550781 17.152343-.441407 23.945312zm-84.195312-128.164062 4.621094 5.6875c-21.351563 11.910156-70.433594 40.417969-93.3125 62.804687-2.757813-7.203125-.8125-15.359375 4.898437-20.546875 11.117188-10.597656 22.957031-20.417969 35.425781-29.386719 13.558594-8.523437 28.105469-15.367187 43.320313-20.382812.359375-.101562.734375-.148438 1.109375-.148438 1.542969.035157 2.988281.757813 3.9375 1.972657zm-10.929688-122.214844c-.070312.324219-.121093.652344-.152343.980469l-10.324219 106.929687c-12.542969 5.128907-24.632812 11.308594-36.136719 18.464844-13.265625 9.523437-25.875 19.933594-37.734375 31.15625-.5625.511719-1.003906 1.101563-1.527344 1.636719-8.667968-7.222656-18.390624-13.074219-28.832031-17.351563-13.226562-6.214843-25.929687-13.492187-37.976562-21.765625l53.324219-56.886718c1.332031-1.082032 2.511718-2.339844 3.507812-3.738282l7.355469-7.84375c-.648438 1.589844-.785157 3.34375-.394531 5.019532 1.261718 4.878906 12.980468 47.964843 34.816406 58.722656 4.226562 2.085937 9.339844.347656 11.425781-3.878906 2.082031-4.230469.34375-9.34375-3.882813-11.425782-11.222656-5.53125-21.804687-32.199218-25.84375-47.703125-.5625-2.191406-1.980468-4.070312-3.929687-5.21875-1.953125-1.144531-4.28125-1.46875-6.472656-.894531-.433594.167969-.851563.371094-1.246094.609375l51.910156-55.382813c.546875-.582031 1.007813-1.238281 1.371094-1.945312l.085937-.171875c.027344-.054687.023438-.113281.050782-.167969.128906-.371094.234375-.746094.3125-1.128906.285156-.792969.449218-1.625.480468-2.46875.175782-7.089844-2.84375-13.886719-8.230468-18.507812-9.171875-7.933594-24.792969-9.917969-46.507813-5.878907-3.765625.851563-7.664062-.75-9.742187-4.003906-2.53125-3.375-3.976563-7.4375-4.144532-11.652344.132813-.683593.183594-1.378906.148438-2.074219 6.144531-3.097656 12.613281-5.503906 19.285156-7.167968l40.5-8.464844c.453125-.039062.902344-.117188 1.34375-.230469 1.382813-.058593 2.734375.386719 3.816406 1.25l15.179688 30.226563.0625.125 14.378906 28.636718c.304688.597657.675782 1.160157 1.109375 1.671876 2.46875 2.90625 3.433594 6.800781 2.613281 10.523437zm38.472657-55.925781-4.648438-27.898438c-.535156-3.199218-2.835937-5.820312-5.941406-6.761718-3.105469-.941407-6.476563-.039063-8.695313 2.324218l-27.375 29.136719-10.488281-20.890625c-.316406-.625-.707031-1.210938-1.164062-1.742188-1.082031-1.210937-2.300781-2.300781-3.625-3.242187l60.816406-64.828125 5.285156 26.417969c.628907 3.144531 2.96875 5.671875 6.058594 6.539062 3.089844.867188 6.402344-.070312 8.578125-2.425781l49.351562-53.464844zm0 0"/></svg>