<svg id="Capa_1" enable-background="new 0 0 512 512" height="512" viewBox="0 0 512 512" width="512" xmlns="http://www.w3.org/2000/svg"><g><g><path d="m511.865 491.97-7.711-40.245c-2.534-13.229-12.073-24.012-24.894-28.142l-5.871-1.891c4.592-6.254 7.337-13.873 7.337-21.995v-13.405c0-21.148-17.205-38.354-38.354-38.354-4.76 0-9.317.878-13.526 2.47-4.836-4.967-10.782-8.693-17.44-10.837l-.139-.045c4.592-6.254 7.337-13.873 7.337-21.995v-13.405c0-21.148-17.205-38.354-38.354-38.354s-38.354 17.206-38.354 38.354v13.405c0 8.122 2.745 15.741 7.338 21.995l-.139.045c-6.546 2.109-12.402 5.748-17.193 10.589v-115.21h9.726c7.617 0 14.097-4.89 16.512-11.689 6.326 1.986 12.998 3.167 19.905 3.381.809.025 1.614.038 2.418.038 19.981 0 38.67-7.728 52.852-21.91 14.753-14.753 22.521-34.382 21.871-55.27-.354-11.416-3.268-22.349-8.659-32.498-1.942-3.658-6.482-5.046-10.142-3.105-3.658 1.943-5.048 6.484-3.104 10.142 4.305 8.103 6.63 16.826 6.913 25.926.519 16.706-5.69 32.402-17.485 44.197-11.794 11.795-27.518 18.018-44.196 17.485-31.197-.969-56.604-26.157-57.842-57.341-.416-10.484 1.923-20.908 6.765-30.145.563-1.074.857-2.269.857-3.482v-20.931h20.934c1.213 0 2.408-.294 3.482-.858 9.234-4.842 19.66-7.182 30.144-6.765 10.192.404 20.191 3.482 28.916 8.899 3.518 2.185 8.142 1.104 10.328-2.416 2.185-3.519 1.104-8.143-2.416-10.328-10.925-6.783-23.453-10.637-36.232-11.144-12.477-.493-24.884 2.133-36.017 7.611h-21.639c-6.893 0-12.5 5.607-12.5 12.5v21.639c-.879 1.786-1.676 3.608-2.407 5.454-3.91-3.171-8.395-5.626-13.221-7.181l-20.922-6.74v-4.802c12.933-7.335 21.873-21.166 21.873-36.63v-15.255c0-23.498-19.116-42.614-42.614-42.614s-42.615 19.117-42.615 42.614v15.256c0 15.464 8.94 29.295 21.874 36.63v4.802l-20.921 6.74c-14.23 4.584-24.819 16.554-27.632 31.238l-6.772 35.344h-9.56c-9.669 0-17.535 7.866-17.535 17.535v16.137c0 9.669 7.866 17.535 17.535 17.535h9.726v40.782c0 4.142 3.358 7.5 7.5 7.5s7.5-3.358 7.5-7.5v-40.781h74.684c4.143 0 7.5-3.358 7.5-7.5s-3.357-7.5-7.5-7.5h-99.409c-1.398 0-2.535-1.137-2.535-2.535v-16.137c0-1.398 1.137-2.535 2.535-2.535h151.853c6.046 7.485 13.487 13.8 21.934 18.513v.159c0 1.398-1.138 2.535-2.535 2.535h-36.449c-4.143 0-7.5 3.358-7.5 7.5s3.357 7.5 7.5 7.5h11.724v113.018c-4.319.136-8.459.985-12.307 2.44-4.836-4.967-10.782-8.693-17.441-10.838l-.139-.045c4.592-6.254 7.337-13.873 7.337-21.995v-13.405c0-21.148-17.205-38.354-38.354-38.354s-38.354 17.206-38.354 38.354v13.405c0 8.122 2.745 15.741 7.337 21.995l-.14.045c-6.659 2.146-12.604 5.872-17.44 10.839-3.847-1.455-7.986-2.304-12.303-2.44v-36.842c0-4.142-3.358-7.5-7.5-7.5s-7.5 3.358-7.5 7.5v39.033c-4.792-4.842-10.648-8.481-17.194-10.59l-.139-.045c4.592-6.254 7.337-13.873 7.337-21.995v-13.405c0-21.148-17.205-38.354-38.354-38.354s-38.354 17.206-38.354 38.354v13.405c0 8.122 2.745 15.741 7.337 21.995l-.139.045c-6.667 2.148-12.605 5.873-17.439 10.839-4.211-1.593-8.769-2.472-13.531-2.472-21.148 0-38.354 17.206-38.354 38.354v13.405c0 8.122 2.745 15.741 7.338 21.996l-5.87 1.891c-12.821 4.129-22.36 14.913-24.895 28.142l-7.71 40.245c-.779 4.068 1.887 7.998 5.955 8.777.477.091.951.135 1.419.135 3.526 0 6.669-2.499 7.358-6.09l7.71-40.245c1.503-7.844 7.159-14.238 14.761-16.687l14.535-4.683c5.344 2.844 11.395 4.476 17.752 4.476s12.408-1.632 17.752-4.476l14.535 4.683c7.603 2.449 13.258 8.843 14.761 16.687l7.71 40.245c.688 3.592 3.832 6.09 7.358 6.09.468 0 .943-.044 1.419-.135 3.097-.594 5.376-3.014 5.947-5.93.002-.009 7.719-40.27 7.719-40.27 1.502-7.844 7.158-14.238 14.761-16.687l14.535-4.683c5.344 2.844 11.395 4.476 17.752 4.476s12.408-1.632 17.752-4.476l14.535 4.683c7.603 2.449 13.258 8.843 14.761 16.687l7.71 40.245c.688 3.592 3.832 6.09 7.358 6.09.468 0 .943-.044 1.42-.135 3.096-.594 5.375-3.014 5.946-5.929.002-.009 7.719-40.27 7.719-40.27 1.503-7.844 7.159-14.239 14.762-16.688l14.534-4.683c5.344 2.844 11.395 4.476 17.752 4.476s12.408-1.632 17.752-4.476l14.535 4.683c7.603 2.449 13.259 8.843 14.761 16.687l7.71 40.245c.688 3.592 3.831 6.09 7.358 6.09.468 0 .942-.044 1.419-.135 3.093-.593 5.371-3.007 5.945-5.918.003-.013 7.722-40.281 7.722-40.281 1.503-7.844 7.159-14.239 14.762-16.688l14.534-4.682c5.344 2.844 11.395 4.476 17.752 4.476s12.408-1.632 17.752-4.476l14.535 4.683c7.603 2.449 13.259 8.843 14.761 16.687l7.711 40.245c.688 3.592 3.831 6.09 7.358 6.09.468 0 .942-.044 1.419-.135 4.071-.781 6.737-4.711 5.958-8.778zm-260.137-308.228-21.867-55.824 6.255-2.015c2.536 8.59 10.484 14.882 19.885 14.882s17.349-6.292 19.885-14.882l6.255 2.015-21.866 55.824zm-23.341-130.01c0-15.227 12.388-27.614 27.615-27.614s27.614 12.388 27.614 27.614v15.256c0 14.471-12.904 27.164-27.614 27.164s-27.615-12.693-27.615-27.164zm27.615 57.421c1.943 0 3.858-.148 5.741-.412v9.303c0 3.166-2.575 5.742-5.741 5.742s-5.741-2.576-5.741-5.742v-9.303c1.882.264 3.797.412 5.741.412zm-54.563 40.068c1.557-8.127 6.875-14.94 14.206-18.467l19.973 50.989h-40.41zm74.946 32.521 19.964-50.968c4.004 1.933 7.482 4.876 10.033 8.541-.64 4.481-.88 9.029-.699 13.586.408 10.276 2.931 20.022 7.114 28.84h-36.412zm80.513 120.383c0-12.877 10.477-23.354 23.354-23.354s23.354 10.477 23.354 23.354v13.405c0 12.229-10.913 22.958-23.354 22.958s-23.354-10.728-23.354-22.958zm-124.252 0c0-12.877 10.477-23.354 23.354-23.354 12.876 0 23.353 10.477 23.353 23.354v13.405c0 12.229-10.913 22.958-23.353 22.958-12.441 0-23.354-10.728-23.354-22.958zm-124.248 0c0-12.877 10.477-23.354 23.354-23.354s23.354 10.477 23.354 23.354v13.405c0 12.229-10.913 22.958-23.354 22.958s-23.354-10.728-23.354-22.958zm-62.125 95.571v-13.405c0-12.877 10.477-23.354 23.354-23.354s23.354 10.477 23.354 23.354v13.405c0 12.229-10.913 22.958-23.354 22.958s-23.354-10.728-23.354-22.958zm85.478 52.029c-2.535-13.229-12.418-24.012-25.239-28.142l-5.87-1.891c4.592-6.254 7.338-13.873 7.338-21.996v-13.405c0-10.822-4.512-20.604-11.746-27.583 2.641-2.149 5.667-3.798 8.961-4.86l8.804-2.836c5.344 2.844 11.395 4.476 17.752 4.476s12.408-1.632 17.752-4.476l8.804 2.836c3.29 1.06 6.317 2.711 8.959 4.86-7.233 6.98-11.745 16.762-11.745 27.583v13.405c0 8.122 2.745 15.741 7.338 21.996l-5.87 1.891c-12.821 4.13-22.704 14.913-25.238 28.142zm38.77-52.029v-13.405c0-12.877 10.477-23.354 23.354-23.354 12.877 0 23.354 10.477 23.354 23.354v13.405c0 12.229-10.913 22.958-23.354 22.958s-23.354-10.728-23.354-22.958zm85.479 52.029c-2.534-13.229-12.418-24.012-25.239-28.142l-5.87-1.891c4.592-6.254 7.338-13.873 7.338-21.996v-13.405c0-10.821-4.512-20.602-11.744-27.582 2.643-2.15 5.669-3.801 8.96-4.861l8.804-2.836c5.344 2.845 11.395 4.476 17.752 4.476s12.408-1.632 17.752-4.476l8.803 2.836c3.291 1.06 6.317 2.711 8.959 4.861-7.233 6.98-11.745 16.761-11.745 27.583v13.405c0 8.122 2.745 15.741 7.337 21.996l-5.87 1.891c-12.819 4.128-22.702 14.911-25.237 28.141zm38.77-52.029v-13.405c0-12.877 10.477-23.354 23.354-23.354s23.354 10.477 23.354 23.354v13.405c0 12.229-10.913 22.958-23.354 22.958s-23.354-10.728-23.354-22.958zm85.483 52.029c-2.534-13.229-12.422-24.012-25.242-28.142l-5.871-1.891c4.592-6.254 7.337-13.873 7.337-21.995v-13.405c0-10.82-4.511-20.601-11.742-27.58 2.643-2.151 5.67-3.802 8.961-4.863l8.804-2.836c5.344 2.845 11.396 4.476 17.752 4.476 6.357 0 12.408-1.632 17.752-4.476l8.804 2.836c3.29 1.06 6.315 2.71 8.958 4.86-7.233 6.98-11.746 16.762-11.746 27.584v13.405c0 8.122 2.745 15.741 7.338 21.996l-5.87 1.891c-12.82 4.127-22.7 14.91-25.235 28.14zm38.767-52.029v-13.405c0-12.877 10.477-23.354 23.354-23.354s23.354 10.477 23.354 23.354v13.405c0 12.229-10.913 22.958-23.354 22.958s-23.354-10.728-23.354-22.958z"/><path d="m418.708 153.287v-18.776c1.9-1.361 3.142-3.581 3.142-6.096 0-4.142-3.357-7.5-7.5-7.5h-24.266c-.077-4.075-3.399-7.356-7.493-7.356s-7.416 3.281-7.493 7.356h-24.267c-4.143 0-7.5 3.358-7.5 7.5 0 2.515 1.242 4.736 3.143 6.097v18.776h-.075c-4.143 0-7.5 3.358-7.5 7.5s3.357 7.5 7.5 7.5h15.15c4.143 0 7.5-3.358 7.5-7.5s-3.357-7.5-7.5-7.5h-.075v-17.372h13.617v39.282h-8.324c-4.143 0-7.5 3.358-7.5 7.5s3.357 7.5 7.5 7.5h31.647c4.143 0 7.5-3.358 7.5-7.5s-3.357-7.5-7.5-7.5h-8.323v-39.282h13.617v17.372h-.075c-4.143 0-7.5 3.358-7.5 7.5s3.357 7.5 7.5 7.5h15.15c4.143 0 7.5-3.358 7.5-7.5s-3.357-7.5-7.5-7.5h-.075z"/></g></g></svg>