<?xml version="1.0"?>
<svg xmlns="http://www.w3.org/2000/svg" viewBox="0 0 512 512" width="512" height="512"><g id="outline"><path d="M488,336H416V278.627a62.172,62.172,0,0,0-16-41.8v-25.51l1.646,1.647L424,250.216V264a8,8,0,0,0,4.422,7.155l16,8a8,8,0,0,0,9.235-1.5l16-16a8,8,0,0,0,1.654-8.906s-32.019-72.034-32.029-72.055c-.29-.64-28.779-34.988-28.779-34.988a60.026,60.026,0,0,0-36.229-20.773L352,121.223v-8.542l3.316-2.661A25.857,25.857,0,0,0,339.13,64h-6.849l-3.719-5.579a28.229,28.229,0,0,0-50.076,25.144l9.64,27.018c-.077.447-.126,20.572-.126,20.572a32.02,32.02,0,0,0,27.087,31.627,25.971,25.971,0,0,0,2.732,10.746L320,177.889v3.3l-29.149,36.438-30.429,15.214a8,8,0,0,0-4.012,9.685l8,24A8,8,0,0,0,272,272h16a8,8,0,0,0,4.588-1.446l24.894-17.426-13.353,73.441a8,8,0,0,0,6.15,9.243l-5.513,27.571a17.917,17.917,0,0,0,1.1,10.623l20.155,47.029-18.463,12.309A8,8,0,0,0,304,440v16a8,8,0,0,0,8,8h56a8,8,0,0,0,8-8s-.007-32.1-.008-32.151c0-.107-23.454-56.237-23.454-56.237l9.223-28.379,4.955,29.726A17.945,17.945,0,0,0,384.472,384h59.247l13.625,20.438A8,8,0,0,0,464,408c.213,0,.427-.009.641-.025l24-1.926a8,8,0,0,0,7.36-7.975V344A8,8,0,0,0,488,336ZM373.766,320l-6.176-18.53A8,8,0,0,0,352,304v16H321.586l13.091-72h53.857A46.286,46.286,0,0,1,400,278.627V320Zm72.654-57.734-6.42-3.21V248a8.009,8.009,0,0,0-1.14-4.116L418.074,209.24l11.346-11.346,25.038,56.335ZM398.212,155.95l22.965,27.559L408,196.687l-10.343-10.344A8,8,0,0,0,384,192v40H336V176a7.994,7.994,0,0,0-.845-3.578l-3.025-6.05a9.963,9.963,0,0,1-1.027-5.206,31.983,31.983,0,0,0,20.29-23.823l20.251,3.374A44.025,44.025,0,0,1,398.212,155.95ZM299.605,63.142A12.249,12.249,0,0,1,315.249,67.3l6.095,9.142A8,8,0,0,0,328,80h11.13A9.857,9.857,0,0,1,345.3,97.542l-4.114,3.3H301.64l-8.083-22.657A12.238,12.238,0,0,1,299.605,63.142ZM304,131.155v-14.31h32v14.31a16,16,0,0,1-12.75,15.668c-.083.014-.166.029-.248.045a15.994,15.994,0,0,1-19-15.713ZM285.479,256h-7.713l-3.983-11.947,25.795-12.9A8.012,8.012,0,0,0,302.247,229L320,206.807v25.028ZM320,448v-3.719L338.422,432H360v16Zm35.868-32H341.275l-20.7-48.3a1.99,1.99,0,0,1-.123-1.18L326.559,336h19.429l-9.6,29.527a8,8,0,0,0,.254,5.624ZM382.5,366.328,377.444,336H400v8a8,8,0,0,0,8,8h32v16H384.472A1.994,1.994,0,0,1,382.5,366.328ZM480,390.69l-11.952.959L456,373.578V352h24Z"/><path d="M239,352a55.948,55.948,0,0,0-45.024,22.746l-18.305-41.184L160,255.207V219.314l9.008,9.007,6.354,19.065-6.517,13.036a8,8,0,0,0,1.5,9.235l16,16a8,8,0,0,0,10.095,1l24-16a8,8,0,0,0,3.254-8.854l-16-56a8.008,8.008,0,0,0-1.036-2.24l-15.886-23.83-10.7-17.827a69.541,69.541,0,0,0-43.047-31.894l-2.44-.61A32.066,32.066,0,0,0,136,120V97.688a32,32,0,0,0-64,0V120a32.028,32.028,0,0,0,1.6,10A69.644,69.644,0,0,0,32,193.976V208a8,8,0,0,0,8,8v30.218L25.756,276.6a8,8,0,0,0,1.93,9.375L41.8,298.521l-8.95,17.9a7.985,7.985,0,0,0,4.382,11.072L26.863,351.677a18.106,18.106,0,0,0,1.9,17.552L64,418.564V456a8,8,0,0,0,8,8H96a8,8,0,0,0,6.86-3.884l24-40a8,8,0,0,0-1.2-9.773l-23.6-23.6L81.8,359.729l21.392-36.217,9.958,24.891a8,8,0,0,0,7.423,5.031c.518,0,3.717-.583,3.717-.583L168,418.422V456a8,8,0,0,0,8,8h63a56,56,0,0,0,0-112Zm27.012,85.471-6.2-10.33,6.672-11.558L278.3,415.4A39.979,39.979,0,0,1,266.012,437.471Zm-52.876-19.077,5.05,8.747-6.2,10.33a40.044,40.044,0,0,1-11.555-18.885Zm32.558-21.99,6.7,11.6-6.7,11.6H232.306l-6.7-11.6,6.7-11.6ZM239,448a39.805,39.805,0,0,1-13.3-2.283l6.073-10.121h14.456l6.073,10.121A39.805,39.805,0,0,1,239,448Zm27.008-48.411-6.194-10.73,6.2-10.33a40,40,0,0,1,12.048,20.877ZM252.3,370.283,246.228,380.4H231.772L225.7,370.283a39.888,39.888,0,0,1,26.6,0Zm-40.313,8.246,6.2,10.33-7.837,13.576-10.974.166A39.94,39.94,0,0,1,211.988,378.529ZM206.7,260.583l-13.683,9.123-7.286-7.286,5.421-10.842a8,8,0,0,0,.435-6.108l-8-24a8.025,8.025,0,0,0-1.933-3.127l-16.151-16.152,15.755-7.877,11.39,17.084ZM88,120V105.688h32V120a16,16,0,0,1-32,0Zm7.125-35.624a15.992,15.992,0,0,1,22.727,5.312h-27.7A15.984,15.984,0,0,1,95.125,84.376ZM48,193.976a53.742,53.742,0,0,1,33.942-50.137l.506-.2a31.894,31.894,0,0,0,43.129-.023c.16.051.318.1.483.147l7.086,1.771a53.646,53.646,0,0,1,33.207,24.606l6.342,10.57-24.273,12.137A8,8,0,0,0,144,200v48H80V184a8,8,0,0,0-16,0v16H48Zm-5.222,84.012L55.244,251.4A8,8,0,0,0,56,248V216h8v38.111l-14.8,29.59ZM91.471,448H80V419.313l16-16,13.927,13.927Zm-6.034-56.751L73.021,403.665,41.78,359.93a2.016,2.016,0,0,1-.21-1.951l10.884-25.395,23.08,7.694-10.19,15.284A8,8,0,0,0,65.6,364.8Zm25.991-90.22a8,8,0,0,0-7.1-5.022c-.111,0-.223-.007-.334-.007a8,8,0,0,0-7.153,4.422l-12.9,25.795L51.28,315.327,76.944,264h68.5l13.144,65.716-33.053,6.574Zm29.836,48.446,22.023-4.381,20.494,46.11a7.973,7.973,0,0,0,1.232,1.948A55.84,55.84,0,0,0,183,408c0,1.524.078,3.029.2,4.522a7.973,7.973,0,0,0-.542-.96ZM184,448V418.492A55.932,55.932,0,0,0,199.861,448Z"/></g></svg>
